<svg xmlns="http://www.w3.org/2000/svg" viewBox="0 0 24 24" fill="currentColor" width="20" height="20">
  <path d="M17.05 20.28c-.98.95-2.05.88-3.08.4-1.09-.5-2.08-.48-3.24 0-1.44.62-2.2.44-3.06-.4C1.79 15.25 4.6 8.42 9.96 8.2c1.12.07 1.93.67 2.96.77 1 .1 1.54-.33 2.39-.61.63-.21 1.22-.12 1.68.1.54.26.72.83.55 1.36-.2.62-.6 1.2-.6 1.93 0 .78.43 1.12.88 1.48.39.31.85.68.85 1.45 0 .9-.68 1.66-1.77 1.38-.5-.13-1.02-.2-1.57-.2-.55 0-1.08.07-1.58.2-1.09.28-1.77-.48-1.77-1.38 0-.77.46-1.14.85-1.45.45-.36.88-.7.88-1.48 0-.73-.4-1.31-.6-1.93-.17-.53.01-1.1.55-1.36.46-.22 1.05-.31 1.68-.1.85.28 1.39.71 2.39.61 1.03-.1 1.84-.7 2.96-.77 5.36.22 8.17 7.05 11.37 9.48.86.84 1.62 1.02 3.06.4 1.16-.48 2.15-.5 3.24 0 1.03.48 2.1.55 3.08-.4 1.78-1.72 1.5-4.2.7-5.8-1.1-2.26-2.86-4.1-4.39-5.13-.45-.3-1.1-.5-1.7-.5-.6 0-1.25.2-1.7.5-1.53 1.03-3.29 2.87-4.39 5.13-.8 1.6-1.08 4.08.7 5.8z"/>
</svg>
