<svg xmlns="http://www.w3.org/2000/svg" viewBox="0 0 24 24" fill="currentColor" width="20" height="20">
  <path d="M12 0C5.4 0 0 5.4 0 12s5.4 12 12 12 12-5.4 12-12S18.66 0 12 0zm5.521 17.34c-.24.359-.66.48-1.021.24-2.82-1.74-6.36-2.101-10.561-1.141-.418.122-.84-.179-.84-.66 0-.419.34-.66.719-.54 4.56 1.021 8.52 1.5 11.64 1.14.42-.06.78.24.84.66.06.42-.24.78-.66.84-.06.06-.12.06-.18.06zm1.44-3.3c-.3.42-.84.6-1.26.3-3.24-1.98-8.16-2.58-11.94-1.38-.479.12-1.02-.12-1.14-.6-.12-.48.12-1.021.6-1.141C9.6 9.9 15 10.561 18.72 12.84c.36.24.54.78.24 1.2zm.12-3.36C15.24 8.4 8.82 8.16 5.16 9.301c-.6.179-1.2-.18-1.38-.72-.18-.6.18-1.2.72-1.38 4.26-1.26 11.28-1.02 15.72 1.621.539.3.719 1.02.42 1.56-.299.421-1.02.599-1.559.3z"/>
</svg>
