<svg xmlns="http://www.w3.org/2000/svg" viewBox="0 0 24 24" fill="currentColor" width="20" height="20">
  <path d="M12.785 16.241s.288-.033.436-.2c.136-.155.132-.447.132-.447s-.02-1.304.58-1.496c.592-.19 1.35.95 2.15 1.37.604.32 1.063.25 1.063.25l2.15-.031s1.125-.07.59-.955c-.044-.07-.308-.65-1.588-1.836-1.344-1.25-1.163-.525.453-1.64.983-.68 2.18-1.4 2.406-1.8.225-.4.16-.6-.16-.6l-2.13.013s-.158-.02-.275.05c-.117.07-.19.23-.19.23s-.34.91-.79 1.68c-.95 1.58-1.33 1.66-1.48 1.57-.36-.22-.27-.88-.27-1.35 0-1.47.22-2.08-.43-2.24-.21-.05-.37-.08-.91-.09-.7-.01-1.29 0-1.62.02-.21.01-.36.15-.36.36v1.7s.01.78-.18.92c-.18.14-.43.15-.6.14-1.5-.15-2.5-1.5-3.5-2.7-.27-.3-.47-.63-.63-.66-.15-.03-.26.02-.26.2v2.2s-.02.4.18.58c.19.18.44.23.58.23.5.05.85-.15 1.2.35.8 1.1 1.2 1.6 1.2 2.5 0 .3-.05.6-.05.9 0 .25.1.4.3.4.4 0 .1-.05.2-.15.3-.1.1-.2.2-.3.3-.2.2-.4.4-.5.6-.1.2-.1.4 0 .5.1.1.2.2.4.2l1.8-.02s.4.02.6-.1c.2-.12.35-.4.35-.4s.25-.7.6-1.4c.35-.7.6-1.2.6-1.2.1-.2.2-.3.4-.3l1.9-.02s.5-.03.6.2c.1.2 0 .5 0 .5z"/>
</svg>
